Coordinates
version=1
nRows=14
nColumns=36
inDegrees=yes

Units are S.I. units (second, meters, Newtons, ...)
If the header above contains a line with 'inDegrees', this indicates whether rotational values are in degrees (yes) or radians (no).

endheader
time	pelvis_tilt	pelvis_list	pelvis_rotation	pelvis_tx	pelvis_ty	pelvis_tz	hip_flexion_r	hip_adduction_r	hip_rotation_r	knee_angle_r	knee_angle_r_beta	ankle_angle_r	subtalar_angle_r	mtp_angle_r	hip_flexion_l	hip_adduction_l	hip_rotation_l	knee_angle_l	knee_angle_l_beta	ankle_angle_l	subtalar_angle_l	mtp_angle_l	lumbar_extension	lumbar_bending	lumbar_rotation	arm_flex_r	arm_add_r	arm_rot_r	elbow_flex_r	pro_sup_r	arm_flex_l	arm_add_l	arm_rot_l	elbow_flex_l	pro_sup_l
      2.61666670	     -5.34898972	      1.01218370	      3.50641403	      0.38699658	      1.27234668	      0.44222689	      3.46333688	     -2.56779158	    -11.79519954	     26.24266361	      0.45802088	    -19.20566397	    -18.10188822	     -7.49999985	      9.21812064	     -1.44057057	      2.64655872	     28.12472170	      0.49086899	    -17.44923319	     -8.82712284	     -7.49999985	      1.24397424	     -5.52754667	     -2.53921695	    -33.07402461	    -12.15870675	    -11.46434364	     87.43670025	     92.80552800	    -18.11178532	    -11.90018685	      9.86826072	     53.09381817	     86.41708083
      2.63333330	     -6.37520969	      1.16037465	      3.13134848	      0.40671155	      1.27260991	      0.44847610	      6.10344351	     -2.67738070	    -11.49245697	     25.38608334	      0.44307074	    -20.59475205	    -18.51402428	     -7.49999985	     10.91767516	     -1.32322191	      1.21777630	     26.45506128	      0.46172792	    -17.08812649	     -8.05422296	     -7.49999985	      0.39124801	     -5.06670371	     -7.31003661	    -30.49358427	    -13.12872192	     -8.38136703	     84.88973926	     95.77159468	    -20.50305916	    -10.42358704	      5.79209882	     51.94715470	     87.41557550
      2.65000000	     -4.77574577	      0.69466455	      3.24549862	      0.41411513	      1.26602717	      0.45057559	      4.78888172	     -2.35100906	    -11.94015172	     23.19848506	      0.40488995	    -17.94611004	    -14.35667539	     -7.49999985	     11.98558875	     -1.15044828	      2.81945166	     27.94252669	      0.48768909	    -15.69816529	     -7.48343258	     -7.49999985	      0.08965188	     -4.96551532	     -3.32015773	    -33.32866823	    -12.51122928	     -8.13585412	     83.54807211	     95.76606832	    -19.52053349	    -12.79768922	      8.43297745	     53.54501020	     88.22953640
      2.66666670	     -6.77816191	      0.61986305	      2.07917855	      0.42812223	      1.25816581	      0.45007954	      9.53513660	     -2.74743974	    -11.92921200	     22.94392656	      0.40044706	    -20.74414238	    -17.88494824	     -7.49999985	     13.49027174	     -1.56830260	     -0.06736028	     23.95793636	      0.41814487	    -16.85007556	     -6.80340682	     -7.49999985	     -0.54925085	     -3.97724319	     -9.78465335	    -29.95267827	    -15.97478892	     -2.84387756	     82.66846753	     97.80567710	    -23.96479488	     -9.68297568	      0.71723115	     53.94359441	     88.05698192
      2.68333330	     -5.24629651	      0.49554175	      1.87523156	      0.44911414	      1.24969419	      0.44427951	      7.80954841	     -3.78498510	    -13.73299241	     19.94280940	      0.34806769	    -18.77529327	    -13.80266406	     -7.49999985	     12.62551477	     -1.26897452	      0.01115691	     23.19878584	      0.40489520	    -17.66489648	     -8.37272808	     -7.49999985	      0.45862257	     -4.06466370	     -5.70394735	    -35.75260847	    -16.74338765	     -2.24640327	     84.93917631	     97.44624585	    -25.38808112	    -11.64351019	      1.66256081	     57.39167320	     88.37253647
      2.70000000	     -7.57913303	      0.80948006	      1.19185550	      0.48001646	      1.24528865	      0.44913912	     11.39259070	     -4.60631562	    -15.75343843	     18.88083214	      0.32953269	    -22.75490630	    -18.53871180	     -7.49999986	     13.65301532	     -1.28827166	     -3.46536600	     19.28736393	      0.33662800	    -19.42604696	     -8.12980511	     -7.49999986	      0.44788455	     -3.38145205	    -11.32651337	    -35.98158963	    -19.25459143	     -0.52275740	     86.11885025	     98.46763245	    -30.15080472	     -7.83689606	     -3.98696775	     56.54377684	     88.32652169
      2.71666670	     -5.74684080	      1.06923629	      2.63874963	      0.49187441	      1.23633612	      0.44834458	      7.23718005	     -5.73613796	    -18.88065086	     13.94402696	      0.24336918	    -20.97783954	    -12.22050031	     -7.49999986	     13.72269647	     -0.85509390	     -3.58254981	     20.94527197	      0.36556396	    -20.92819603	    -11.60255175	     -7.49999986	      1.55838257	     -4.28468222	     -5.10805568	    -45.58809523	    -16.16920532	     -3.86869918	     89.22544165	     97.47868611	    -31.06754616	    -12.84005279	      1.10979028	     60.19581736	     88.38765655
      2.73333330	     -8.54328206	      0.89024454	      2.67871514	      0.50623975	      1.21970942	      0.44519814	     11.36976155	     -6.17920976	    -18.81096704	     13.37564400	      0.23344903	    -24.87601583	    -15.86741945	     -7.49999986	     15.97431263	     -0.80279321	     -6.66238733	     16.84034755	      0.29391951	    -22.59577891	     -9.58773299	     -7.49999986	      1.55333567	     -2.88394922	    -11.41881561	    -46.13535255	    -19.77140553	     -3.51964118	     91.10136406	     99.03502963	    -35.22496233	     -8.07016822	     -3.47299434	     58.43654281	     87.92585971
      2.75000000	     -5.99786945	      1.00213652	      4.34216676	      0.52035527	      1.19784716	      0.45107420	      7.53445065	     -7.18745738	    -21.00880687	     10.34742943	      0.18059671	    -23.15980000	     -9.55014280	     -7.49999986	     15.52189047	     -0.50788648	     -6.46315937	     17.95453468	      0.31336575	    -23.08840385	    -11.92996092	     -7.49999986	      2.03658343	     -4.16779400	     -5.53838487	    -53.74362604	    -16.29070607	     -4.68925589	     93.92112461	     98.52021230	    -38.12819124	    -13.76225712	     -0.84580456	     65.94893233	     86.69562102
      2.76666670	     -8.72385225	      0.42834118	      7.23292165	      0.53556208	      1.18887206	      0.44991836	     11.73037348	     -7.39604775	    -21.35967036	     11.03828197	      0.19265436	    -26.24802613	    -13.96042162	     -7.49999986	     18.18731835	      0.05662212	     -7.76517859	     13.69561842	      0.23903363	    -25.67463059	     -9.41424500	     -7.49999986	      1.40339525	     -2.80763725	    -13.89046203	    -52.38546784	    -18.78660448	     -4.45961179	     92.94797255	     99.84057273	    -41.05146330	     -8.88818809	     -5.46347122	     63.27430902	     85.40463993
      2.78333330	     -6.21894607	      0.65874371	      8.77679368	      0.56022283	      1.16421462	      0.45384641	      7.54453548	     -7.93009975	    -23.20625317	      7.50096210	      0.13091649	    -25.49566878	     -6.92505716	     -7.49999986	     17.47639163	      0.31399574	     -7.47669074	     15.00121385	      0.26182057	    -25.70657655	    -10.35404838	     -7.49999986	      2.71677167	     -3.91387312	     -6.34277702	    -59.63231665	    -12.85799154	     -5.98276881	     94.21107188	     99.23665829	    -42.51387061	    -16.80279267	     -0.25916436	     69.16328698	     84.35422280
      2.80000000	     -8.48721203	     -0.70819068	     11.41386059	      0.57060371	      1.13641600	      0.45037902	     12.00875636	     -7.65803437	    -23.26489406	      9.65860548	      0.16857447	    -28.92602556	    -13.59457192	     -7.49999986	     20.16387023	      0.24883829	     -6.63949899	     11.96004166	      0.20874211	    -27.56565498	     -6.88589442	     -7.49999986	      1.52049640	     -1.86414310	    -14.73346807	    -56.56570928	    -16.27657433	     -5.14402627	     92.88769806	     98.49317225	    -45.28858251	    -11.00333574	     -4.73208115	     66.18270790	     81.06960575
      2.81666670	     -5.59298846	     -0.02117771	     10.18375068	      0.57984044	      1.11369028	      0.45071395	      9.29549686	     -8.68771171	    -23.52068889	      8.04840718	      0.14047120	    -27.96829815	     -8.47333187	     -7.49999987	     19.35779497	      0.54700049	     -4.32457130	     14.03515234	      0.24495962	    -24.90821002	     -5.80964868	     -7.49999987	      2.04574489	     -3.00900037	     -4.26917218	    -60.15234763	    -10.30820480	     -5.41636747	     93.73603538	     98.81718213	    -45.45740003	    -19.35428285	      0.71294399	     71.97503179	     79.53158292
      2.83333330	     -8.07206475	     -1.84290665	     10.84813032	      0.59834528	      1.08471149	      0.45091348	     14.70241239	     -7.77983918	    -23.56339139	     10.80390616	      0.18856373	    -32.18439847	    -16.23914037	     -7.49999987	     22.30192537	     -0.46232961	     -2.87395071	     11.90613724	      0.20780130	    -27.09743490	     -3.27139874	     -7.49999987	      0.15825016	      0.42682496	    -12.34578181	    -53.98049814	    -14.76741427	     -4.27380861	     91.62272178	    100.24295355	    -46.33670551	    -10.67896319	     -4.08111657	     65.80740998	     79.18109395
